PathFileType  4	(X/Y/Z)
DataRate	CameraRate	NumFrames	NumMarkers	Units	OrigDataRate	OrigDataStartFrame	OrigNumFrames
  100.0 	  100.0 	    9 	     42 	mm 	  100.0 	      30 	    237
Frame#	Time	R.Shoulder			R.Clavicle			R.Bicep			R.Elbow			R.Forearm			R.Wrist			L.Shoulder			L.Clavicle			L.Scapula			L.Bicep			L.Elbow			L.Forearm			L.Wrist			R.ASIS			R.Iliac			S2			L.Iliac			L.ASIS			R.TH1			R.TH2			R.TH3			R.Knee			R.SH1			R.SH2			R.SH3			R.SH4			R.Ankle			R.Heel			R.MT5			L.TH1			L.TH2			L.TH3			L.TH4			L.Knee			L.SH1			L.SH2			L.SH3			L.Ankle			L.Heel			L.MT5			R_HJC			L_HJC			
		X1	Y1	Z1	X2	Y2	Z2	X3	Y3	Z3	X4	Y4	Z4	X5	Y5	Z5	X6	Y6	Z6	X7	Y7	Z7	X8	Y8	Z8	X9	Y9	Z9	X10	Y10	Z10	X11	Y11	Z11	X12	Y12	Z12	X13	Y13	Z13	X14	Y14	Z14	X15	Y15	Z15	X16	Y16	Z16	X17	Y17	Z17	X18	Y18	Z18	X19	Y19	Z19	X20	Y20	Z20	X21	Y21	Z21	X22	Y22	Z22	X23	Y23	Z23	X24	Y24	Z24	X25	Y25	Z25	X26	Y26	Z26	X27	Y27	Z27	X28	Y28	Z28	X29	Y29	Z29	X30	Y30	Z30	X31	Y31	Z31	X32	Y32	Z32	X33	Y33	Z33	X34	Y34	Z34	X35	Y35	Z35	X36	Y36	Z36	X37	Y37	Z37	X38	Y38	Z38	X39	Y39	Z39	X40	Y40	Z40	X41	Y41	Z41	X42	Y42	Z42	

30	0.29000	-1150.816	1412.930	9.127	-1079.080	1398.276	-148.942	-1141.017	1238.504	25.085	-1227.072	1109.491	66.934	-1148.497	979.316	72.512	-1164.342	876.372	113.152	-1190.580	1421.937	-375.816	-1075.129	1401.470	-215.027	-1290.544	1310.212	-236.610	-1129.825	1260.699	-382.065	-1172.742	1120.460	-440.852	-1071.045	1023.150	-427.338	-1044.657	910.685	-462.879	-1071.314	963.137	-51.844	-1175.054	1037.581	-31.291	-1260.803	963.631	-190.000	-1170.685	1018.922	-352.514	-1069.062	944.974	-327.383	-1011.560	744.125	-81.103	-1002.274	659.079	-95.372	-1110.253	629.717	0.342	-1096.863	485.171	-45.421	-1040.537	346.900	-86.251	-1051.791	274.195	-97.463	-1143.601	352.046	-34.639	-1155.567	279.408	-46.479	-1129.825	94.160	-102.266	-1189.616	52.355	-169.223	-1008.367	34.126	-69.877	-1026.675	751.813	-354.371	-1004.312	670.462	-346.409	-1170.902	709.374	-379.747	-1145.309	625.282	-368.808	-1089.408	487.817	-363.297	-1146.371	370.006	-346.359	-1206.946	324.945	-336.798	-1277.408	415.049	-338.583	-1405.340	262.387	-304.168	-1465.118	293.651	-231.253	-1408.331	127.245	-331.567	-1142.045	863.882	-80.077	-1143.079	851.576	-289.522
31	0.30000	-1138.581	1415.052	9.102	-1068.018	1399.890	-149.324	-1127.577	1240.825	25.096	-1211.636	1111.171	68.414	-1131.618	981.770	72.441	-1145.669	878.760	113.530	-1180.741	1423.450	-375.491	-1064.416	1402.973	-215.355	-1279.965	1312.074	-235.358	-1121.273	1261.631	-381.865	-1166.601	1121.714	-439.816	-1067.041	1021.939	-427.699	-1044.406	908.469	-463.299	-1061.110	963.762	-51.158	-1164.491	1038.842	-30.363	-1250.733	965.563	-188.942	-1161.175	1021.451	-351.368	-1059.244	947.786	-326.633	-1003.918	743.211	-81.047	-995.853	658.039	-95.585	-1104.234	630.143	0.136	-1093.331	485.282	-45.506	-1038.194	346.601	-86.879	-1049.981	274.041	-98.130	-1140.877	352.580	-34.658	-1153.441	280.021	-46.385	-1129.613	94.412	-102.419	-1189.635	52.549	-169.415	-1008.348	34.098	-69.834	-1013.324	757.295	-354.707	-988.835	676.591	-346.953	-1156.644	711.069	-379.206	-1128.716	627.629	-368.542	-1067.635	492.216	-363.116	-1121.954	373.574	-346.622	-1181.804	327.503	-337.238	-1253.678	416.619	-338.743	-1379.293	261.026	-304.716	-1440.850	289.856	-232.314	-1377.653	126.307	-333.521	-1131.880	865.188	-79.805	-1133.438	853.886	-289.303
32	0.31000	-1126.475	1417.091	9.031	-1057.036	1401.418	-149.708	-1114.157	1243.114	25.077	-1196.181	1112.805	69.874	-1114.646	984.234	72.396	-1126.854	881.160	113.879	-1170.975	1424.874	-375.177	-1053.786	1404.375	-215.676	-1269.420	1313.797	-234.167	-1112.869	1262.466	-381.751	-1160.729	1122.935	-438.806	-1063.322	1020.775	-428.132	-1044.445	906.419	-463.751	-1051.018	964.273	-50.315	-1154.027	1039.927	-29.426	-1240.679	967.494	-188.120	-1151.395	1023.999	-350.274	-1049.266	950.531	-325.702	-996.272	742.189	-80.771	-989.448	656.918	-95.642	-1098.440	630.492	-0.144	-1089.917	485.425	-45.662	-1035.962	346.272	-87.405	-1048.259	273.904	-98.714	-1138.374	353.139	-34.840	-1151.497	280.667	-46.474	-1129.373	94.659	-102.611	-1189.652	52.773	-169.633	-1008.332	34.067	-69.800	-1000.032	762.745	-354.859	-973.552	682.748	-347.259	-1142.331	712.853	-378.922	-1112.200	630.126	-368.500	-1046.351	496.692	-362.886	-1097.657	377.007	-346.857	-1156.504	329.634	-337.646	-1230.235	417.370	-339.030	-1352.865	258.514	-305.347	-1416.087	284.741	-233.401	-1346.287	124.340	-335.347	-1121.880	866.368	-79.578	-1123.697	856.168	-289.130
33	0.32000	-1114.501	1419.006	8.932	-1046.124	1402.828	-150.074	-1100.753	1245.311	25.026	-1180.727	1114.350	71.325	-1097.600	986.678	72.385	-1107.914	883.536	114.197	-1161.257	1426.165	-374.870	-1043.218	1405.645	-215.984	-1258.899	1315.355	-233.035	-1104.605	1263.167	-381.730	-1155.123	1124.072	-437.814	-1059.858	1019.630	-428.633	-1044.715	904.518	-464.222	-1041.028	964.673	-49.309	-1143.657	1040.819	-28.496	-1230.641	969.358	-187.554	-1141.357	1026.479	-349.248	-1039.100	953.191	-324.615	-988.609	741.058	-80.301	-983.059	655.723	-95.553	-1092.848	630.767	-0.487	-1086.624	485.594	-45.892	-1033.860	345.925	-87.749	-1046.648	273.784	-99.128	-1136.159	353.728	-35.196	-1149.807	281.353	-46.774	-1129.101	94.892	-102.846	-1189.658	53.009	-169.856	-1008.320	34.039	-69.778	-986.813	768.103	-354.755	-958.450	688.864	-347.265	-1127.938	714.681	-378.918	-1095.739	632.715	-368.718	-1025.576	501.147	-362.639	-1073.527	380.219	-347.040	-1131.113	331.304	-338.005	-1207.078	417.254	-339.452	-1326.064	254.926	-306.057	-1390.820	278.328	-234.502	-1314.229	121.462	-337.041	-1111.993	867.406	-79.387	-1113.805	858.369	-288.992
34	0.33000	-1102.658	1420.757	8.819	-1035.270	1404.092	-150.410	-1087.369	1247.362	24.941	-1165.281	1115.757	72.772	-1080.497	989.071	72.409	-1088.872	885.857	114.484	-1151.563	1427.287	-374.570	-1032.690	1406.755	-216.280	-1248.394	1316.725	-231.966	-1096.469	1263.696	-381.797	-1149.765	1125.083	-436.832	-1056.620	1018.482	-429.197	-1045.166	902.744	-464.700	-1031.136	964.967	-48.149	-1133.395	1041.514	-27.599	-1220.613	971.089	-187.246	-1131.094	1028.817	-348.297	-1028.757	955.773	-323.419	-980.930	739.822	-79.679	-976.686	654.461	-95.326	-1087.422	630.974	-0.886	-1083.453	485.779	-46.185	-1031.877	345.585	-87.880	-1045.153	273.678	-99.326	-1134.234	354.344	-35.709	-1148.382	282.074	-47.272	-1128.802	95.108	-103.122	-1189.643	53.245	-170.062	-1008.311	34.015	-69.768	-973.710	773.316	-354.347	-943.522	694.865	-346.925	-1113.460	716.518	-379.199	-1079.326	635.345	-369.214	-1005.323	505.486	-362.403	-1049.613	383.144	-347.154	-1105.699	332.502	-338.298	-1184.196	416.257	-340.005	-1298.870	250.326	-306.835	-1365.029	270.643	-235.612	-1281.439	117.786	-338.606	-1102.169	868.294	-79.232	-1103.726	860.448	-288.887
35	0.34000	-1090.934	1422.309	8.696	-1024.459	1405.177	-150.711	-1074.019	1249.227	24.831	-1149.847	1116.980	74.213	-1063.357	991.377	72.454	-1069.750	888.101	114.735	-1141.870	1428.208	-374.280	-1022.178	1407.681	-216.571	-1237.894	1317.891	-230.964	-1088.447	1264.021	-381.949	-1144.625	1125.936	-435.860	-1053.588	1017.309	-429.811	-1045.761	901.070	-465.177	-1021.333	965.155	-46.862	-1123.275	1042.010	-26.769	-1210.582	972.624	-187.181	-1120.648	1030.957	-347.428	-1018.305	958.313	-322.170	-973.241	738.490	-78.951	-970.321	653.138	-94.976	-1082.114	631.122	-1.327	-1080.395	485.976	-46.519	-1029.987	345.270	-87.817	-1043.756	273.570	-99.323	-1132.551	354.980	-36.337	-1147.179	282.813	-47.922	-1128.491	95.314	-103.426	-1189.593	53.478	-170.230	-1008.303	33.994	-69.763	-960.765	778.337	-353.617	-928.764	700.670	-346.219	-1098.909	718.329	-379.758	-1062.971	637.962	-369.983	-985.601	509.622	-362.194	-1025.958	385.741	-347.188	-1080.319	333.237	-338.509	-1161.563	414.404	-340.671	-1271.252	244.765	-307.671	-1338.681	261.723	-236.734	-1247.878	113.425	-340.051	-1092.361	869.027	-79.125	-1093.440	862.381	-288.825
36	0.35000	-1079.306	1423.628	8.564	-1013.670	1406.053	-150.981	-1060.725	1250.876	24.713	-1134.428	1117.988	75.641	-1046.206	993.561	72.502	-1050.571	890.247	114.936	-1132.156	1428.904	-374.004	-1011.663	1408.400	-216.860	-1227.389	1318.840	-230.030	-1080.529	1264.123	-382.179	-1139.661	1126.614	-434.900	-1050.751	1016.091	-430.461	-1046.474	899.475	-465.651	-1011.597	965.227	-45.479	-1113.320	1042.309	-26.036	-1200.530	973.911	-187.328	-1110.061	1032.858	-346.657	-1008.481	960.368	-320.356	-965.549	737.074	-78.164	-963.956	651.756	-94.524	-1076.869	631.221	-1.803	-1077.431	486.171	-46.871	-1028.149	344.981	-87.619	-1042.422	273.444	-99.175	-1131.014	355.622	-37.027	-1146.109	283.555	-48.663	-1128.182	95.523	-103.740	-1189.496	53.712	-170.349	-1008.293	33.970	-69.760	-947.982	783.112	-352.574	-914.184	706.202	-345.157	-1084.310	720.078	-380.568	-1046.698	640.515	-370.996	-966.412	513.487	-362.016	-1002.599	387.993	-347.139	-1055.012	333.535	-338.631	-1139.149	411.744	-341.430	-1243.177	238.300	-308.550	-1311.732	251.627	-237.870	-1213.529	108.484	-341.387	-1082.877	869.572	-78.920	-1083.348	863.993	-288.653
37	0.36000	-1067.744	1424.686	8.423	-1002.875	1406.699	-151.221	-1047.501	1252.290	24.600	-1119.035	1118.766	77.043	-1029.076	995.590	72.537	-1031.353	892.282	115.066	-1122.402	1429.358	-373.747	-1001.125	1408.893	-217.149	-1216.869	1319.565	-229.162	-1072.705	1263.999	-382.476	-1134.823	1127.116	-433.957	-1048.082	1014.811	-431.132	-1047.274	897.935	-466.117	-1001.898	965.175	-44.034	-1103.528	1042.412	-25.425	-1190.445	974.906	-187.650	-1099.363	1034.483	-345.996	-998.715	961.699	-318.447	-957.863	735.579	-77.353	-957.586	650.308	-93.993	-1071.633	631.277	-2.308	-1074.520	486.350	-47.218	-1026.312	344.705	-87.366	-1041.104	273.289	-98.963	-1129.511	356.256	-37.729	-1145.066	284.285	-49.428	-1127.888	95.749	-104.048	-1189.346	53.945	-170.427	-1008.278	33.936	-69.754	-935.341	787.579	-351.253	-899.805	711.385	-343.777	-1069.705	721.723	-381.583	-1030.544	642.950	-372.196	-947.762	517.031	-361.860	-979.556	389.910	-347.011	-1029.801	333.438	-338.666	-1116.911	408.331	-342.263	-1214.618	230.996	-309.463	-1284.134	240.441	-239.020	-1178.400	103.068	-342.626	-1073.591	869.898	-78.671	-1073.303	865.222	-288.426
38	0.37000	-1056.218	1425.462	8.269	-992.052	1407.100	-151.430	-1034.355	1253.451	24.499	-1103.680	1119.309	78.401	-1012.005	997.439	72.547	-1012.115	894.194	115.107	-1112.594	1429.559	-373.512	-990.550	1409.142	-217.434	-1206.333	1320.061	-228.363	-1064.952	1263.659	-382.827	-1130.058	1127.447	-433.037	-1045.536	1013.457	-431.808	-1048.119	896.431	-466.563	-992.209	964.985	-42.566	-1093.875	1042.317	-24.944	-1180.322	975.579	-188.110	-1088.573	1035.805	-345.451	-988.397	962.351	-316.955	-950.191	734.004	-76.548	-951.212	648.773	-93.414	-1066.366	631.291	-2.836	-1071.606	486.497	-47.545	-1024.420	344.431	-87.139	-1039.748	273.103	-98.769	-1127.930	356.863	-38.401	-1143.950	284.994	-50.161	-1127.612	95.998	-104.343	-1189.149	54.168	-170.485	-1008.256	33.891	-69.742	-922.826	791.668	-349.699	-885.659	716.146	-342.143	-1055.151	723.226	-382.742	-1014.556	645.213	-373.504	-929.663	520.224	-361.713	-956.843	391.510	-346.812	-1004.702	332.998	-338.625	-1094.809	404.216	-343.152	-1185.541	222.926	-310.393	-1255.832	228.277	-240.176	-1142.523	97.283	-343.786	-1064.275	869.994	-78.478	-1063.060	866.085	-288.245
